<svg data-v-d5ee49ac="" xmlns="http://www.w3.org/2000/svg" version="1.1" width="21" height="23" viewBox="0 0 21 23" id="test-id-share"><g id="share" transform="translate(-8.002 -5.543)"><path id="Path_1509" data-name="Path 1509" d="M3672.681,18186.916a2.684,2.684,0,0,1-2.679-2.684v-12.516a2.684,2.684,0,0,1,2.679-2.684h2.684a.895.895,0,0,1,0,1.789h-2.684a.9.9,0,0,0-.895.895v12.516a.9.9,0,0,0,.895.895h16.094a.9.9,0,0,0,.895-.895v-7.152a.895.895,0,0,1,1.789,0v7.152a2.688,2.688,0,0,1-2.684,2.684Zm3.2-7.18a.667.667,0,0,1-.52-.645v-1.342a8.729,8.729,0,0,1,8.718-8.717h.224v-2.908a.67.67,0,0,1,.42-.621.678.678,0,0,1,.735.156l5.81,6.039a.668.668,0,0,1,0,.93l-5.81,6.035a.671.671,0,0,1-.735.154.662.662,0,0,1-.42-.621v-2.9h-1.063a7.329,7.329,0,0,0-6.6,4.076.7.7,0,0,1-.612.379A.786.786,0,0,1,3675.885,18179.736Z" transform="translate(-3662 -18159.914)" fill="null"></path></g></svg>