<svg data-v-dc3735ed="" xmlns="http://www.w3.org/2000/svg" width="30" height="30" viewBox="0 0 17 17" id="Component_3454_12" data-name="Component 3454 – 12" class="location-info__icon" aria-label="Geolocation icon" role="img"><path id="Path_1823" data-name="Path 1823" d="M-4921.044,5986.259h0c-.058-.07-1.41-1.762-2.728-3.761-1.245-1.889-2.728-4.468-2.728-6.029a5.47,5.47,0,0,1,5.457-5.471,5.47,5.47,0,0,1,5.456,5.471c0,1.562-1.483,4.141-2.729,6.029-1.315,2-2.669,3.69-2.727,3.761h0Zm.06-12.314a2.319,2.319,0,0,0-2.313,2.32,2.318,2.318,0,0,0,2.313,2.319,2.318,2.318,0,0,0,2.313-2.319A2.319,2.319,0,0,0-4920.985,5973.945Z" transform="translate(4929.500 -5970.498)" fill="none" stroke="var(--header-text-color, var(--default-header-text-color))" stroke-width="1"></path></svg>