<svg data-v-8a4e24c1="" xmlns="http://www.w3.org/2000/svg" width="18" height="18" viewBox="0 0 18 18" class="resume-ctas-buttons__item--icon" data-testid="copy-icon"><path fill-rule="evenodd" clip-rule="evenodd" d="M7 6C6.44772 6 6 6.44772 6 7V15C6 15.5523 6.44772 16 7 16H15C15.5523 16 16 15.5523 16 15V7C16 6.44772 15.5523 6 15 6H7ZM4 7C4 5.34315 5.34315 4 7 4H15C16.6569 4 18 5.34315 18 7V15C18 16.6569 16.6569 18 15 18H7C5.34315 18 4 16.6569 4 15V7Z" fill="#2C3E50"></path><path fill-rule="evenodd" clip-rule="evenodd" d="M0.87868 0.87868C1.44129 0.31607 2.20435 0 3 0H11C11.7956 0 12.5587 0.31607 13.1213 0.87868C13.6839 1.44129 14 2.20435 14 3V5C14 5.55228 13.5523 6 13 6C12.4477 6 12 5.55228 12 5V3C12 2.73478 11.8946 2.48043 11.7071 2.29289C11.5196 2.10536 11.2652 2 11 2H3C2.73478 2 2.48043 2.10536 2.29289 2.29289C2.10536 2.48043 2 2.73478 2 3V11C2 11.2652 2.10536 11.5196 2.29289 11.7071C2.48043 11.8946 2.73478 12 3 12H5C5.55228 12 6 12.4477 6 13C6 13.5523 5.55228 14 5 14H3C2.20435 14 1.44129 13.6839 0.87868 13.1213C0.31607 12.5587 0 11.7956 0 11V3C0 2.20435 0.31607 1.44129 0.87868 0.87868Z" fill="#2C3E50"></path></svg>