<svg data-v-ef4a518f="" xmlns="http://www.w3.org/2000/svg" width="17" height="17" viewBox="0 0 17 17"><g transform="translate(-1854.900 -375.501)"><path d="M-2161.352-4619.59s-.035-1.034,0-1.943c.074-1.914,3.113-2.589,3.113-2.589a4.86,4.86,0,0,0,2.978.781h.974a6.218,6.218,0,0,0,3.025-.781s2.747.678,2.668,2.972c-.021.6,0,1.56,0,1.56" transform="translate(4018.368 5010.962)" fill="none" stroke="var(--header-text-color, var(--default-header-text-color))" stroke-width="1"></path><path id="Caminho_2342" data-name="Caminho 2342" d="M3.373,0H4.5A3.373,3.373,0,0,1,7.87,3.373V5.622A3.373,3.373,0,0,1,4.5,8.995H3.373A3.373,3.373,0,0,1,0,5.622V3.373A3.373,3.373,0,0,1,3.373,0Z" transform="translate(1859.662 376.001)" fill="none" stroke="var(--header-text-color, var(--default-header-text-color))" stroke-width="1"></path></g></svg>