<svg data-v-6fd2edeb="" xmlns="http://www.w3.org/2000/svg" width="23px" height="23px" viewBox="0 0 23 23" class="modal__icon-close--desktop ml-1"><g stroke="none" stroke-width="1" fill="none" fill-rule="evenodd"><g id="Jeep-Proprietários---Acessórios-e-Customização-Galeria-de-Acessórios" transform="translate(-1859.000000, -198.000000)" fill="#000"><g id="Rectangle-10-Copy-12" transform="translate(1820.000000, 160.000000)"><g id="Group-6"><path d="M53.1954197,49.5002051 L53.4271014,49.7271191 L61.7549404,57.8878046 C62.0816865,58.2113415 62.0816865,58.7319568 61.7549404,59.0538514 L60.0156452,60.758579 C59.6872234,61.0804737 59.1543757,61.0804737 58.8259539,60.758579 L51.0946362,53.180917 C50.7662144,52.85738 50.2350423,52.85738 49.9049449,53.180917 L42.1736272,60.758579 C41.8452054,61.0804737 41.3123577,61.0804737 40.9856115,60.758579 L39.2463164,59.0538514 C38.9178945,58.7319568 38.9178945,58.2113415 39.2463164,57.8878046 L47.5724797,49.7271191 L47.8045803,49.4997949 L47.5728986,49.2728809 L39.2450596,41.1121954 C38.9183135,40.7886585 38.9183135,40.2680432 39.2450596,39.9461486 L40.9843548,38.241421 C41.3127766,37.9195263 41.8456243,37.9195263 42.1740461,38.241421 L49.9053638,45.819083 C50.2337856,46.14262 50.7649577,46.14262 51.0950551,45.819083 L58.8263728,38.241421 C59.1547946,37.9195263 59.6876423,37.9195263 60.0143885,38.241421 L61.7536836,39.9461486 C62.0821055,40.2680432 62.0821055,40.7886585 61.7536836,41.1121954 L53.4275203,49.2728809 L53.1954197,49.5002051 Z"></path></g></g></g></g></svg>