<svg data-v-fde6b731="" xmlns="http://www.w3.org/2000/svg" width="20.448" height="20.449" viewBox="0 0 20.448 20.449" class="icon-change mr-1"><g id="Group_3436" data-name="Group 3436" transform="translate(0 0)"><g id="phone" transform="translate(0 0)"><g id="Group_2693" data-name="Group 2693" transform="translate(1.717 1.717)"><g id="Group_2692" data-name="Group 2692"><path id="Path_1224" data-name="Path 1224" d="M59.634,52.4,50.6,43.368a1.279,1.279,0,0,0-1.807,0l-5.423,5.423a1.279,1.279,0,0,0,0,1.807L52.4,59.635a1.28,1.28,0,0,0,1.807,0l5.423-5.423A1.279,1.279,0,0,0,59.634,52.4ZM44.27,49.694l5.423-5.423.9.9L45.174,50.6Zm7.23,7.23L46.078,51.5,51.5,46.079,56.923,51.5Zm1.807,1.807-.9-.9L57.826,52.4l.9.9Z" transform="translate(-42.993 -42.994)" fill="#000"></path></g></g><g id="Group_2695" data-name="Group 2695" transform="translate(0 10.863)"><g id="Group_2694" data-name="Group 2694" transform="translate(0)"><path id="Path_1225" data-name="Path 1225" d="M6.378,280.63c0-.015,0-.031,0-.047l-.639-2.965a.64.64,0,0,0-1.251.27l.332,1.543a8.2,8.2,0,0,1-3.541-6.789.639.639,0,0,0-1.278,0A9.458,9.458,0,0,0,3.725,280.2l-1.845.111a.639.639,0,0,0,.038,1.277h.038l3.834-.23a.144.144,0,0,0,.019-.005c.026,0,.052,0,.078-.008a.738.738,0,0,0,.073-.032.61.61,0,0,0,.107-.043c.012-.006.022-.01.033-.018a.659.659,0,0,0,.072-.063.687.687,0,0,0,.084-.088.536.536,0,0,0,.054-.086c.005-.01.017-.013.02-.023a.271.271,0,0,0,.008-.031.743.743,0,0,0,.024-.075.615.615,0,0,0,.018-.095c0-.027.005-.052.005-.079a.223.223,0,0,0,0-.031C6.389,280.662,6.38,280.648,6.378,280.63Z" transform="translate(-0.001 -272.002)" fill="#000"></path></g></g><g id="Group_2697" data-name="Group 2697" transform="translate(14.059)"><g id="Group_2696" data-name="Group 2696" transform="translate(0 0)"><path id="Path_1226" data-name="Path 1226" d="M354.693,1.388l1.845-.111a.64.64,0,0,0,.6-.676.616.616,0,0,0-.676-.6l-3.834.23c-.017,0-.031.01-.047.013s-.032,0-.049,0-.024.013-.038.017a.724.724,0,0,0-.074.026.634.634,0,0,0-.077.041.6.6,0,0,0-.07.046.649.649,0,0,0-.055.049.677.677,0,0,0-.055.065.587.587,0,0,0-.05.075c-.006.013-.019.02-.024.033a.262.262,0,0,0-.008.031.739.739,0,0,0-.024.075.6.6,0,0,0-.018.1c0,.027-.006.052-.006.079a.251.251,0,0,0,0,.031c0,.017.01.031.011.046s0,.033,0,.05l.639,2.965a.642.642,0,0,0,.625.5.61.61,0,0,0,.135-.014.64.64,0,0,0,.491-.759L353.6,2.156a8.2,8.2,0,0,1,3.541,6.79.639.639,0,1,0,1.278,0A9.458,9.458,0,0,0,354.693,1.388Z" transform="translate(-352.028 0)" fill="#000"></path></g></g></g></g></svg>