<svg data-v-8a4e24c1="" xmlns="http://www.w3.org/2000/svg" width="23" height="21" viewBox="0 0 23 21" class="resume-ctas-buttons__item--icon" data-testid="print-icon"><g id="Solid" transform="translate(0.25 0.25)"><g id="printing" transform="translate(0 0)"><g id="Group_3884" data-name="Group 3884"><g id="Group_3883" data-name="Group 3883"><path id="Path_1482" data-name="Path 1482" d="M21.33,23.3H18.877V18.836a.771.771,0,0,0-.771-.771H5.023a.771.771,0,0,0-.771.771V23.3H1.8A1.8,1.8,0,0,0,0,25.1v7.756a1.8,1.8,0,0,0,1.8,1.8H4.252v4.139a.771.771,0,0,0,.771.771H18.106a.771.771,0,0,0,.771-.771V34.652H21.33a1.8,1.8,0,0,0,1.8-1.8V25.1A1.8,1.8,0,0,0,21.33,23.3ZM5.794,19.607H17.335V23.3H5.794ZM17.335,38.02H5.794V31.712H17.335C17.335,31.9,17.335,37.875,17.335,38.02Zm4.252-5.166a.257.257,0,0,1-.257.257H18.877V30.941a.771.771,0,0,0-.771-.771H5.023a.771.771,0,0,0-.771.771V33.11H1.8a.257.257,0,0,1-.257-.257V25.1A.257.257,0,0,1,1.8,24.84H21.33a.257.257,0,0,1,.257.257v7.756Z" transform="translate(0 -18.065)" fill="#000" stroke="#000" stroke-width="0.5"></path></g></g><g id="Group_3886" data-name="Group 3886" transform="translate(15.373 8.218)"><g id="Group_3885" data-name="Group 3885"><path id="Path_1483" data-name="Path 1483" d="M343.031,199.988h-1.962a.771.771,0,1,0,0,1.542h1.962a.771.771,0,1,0,0-1.542Z" transform="translate(-340.298 -199.988)" fill="#000"></path></g></g><g id="Group_3888" data-name="Group 3888" transform="translate(7.453 17.246)"><g id="Group_3887" data-name="Group 3887" transform="translate(0 0)"><path id="Path_1484" data-name="Path 1484" d="M172.43,399.834h-6.682a.771.771,0,1,0,0,1.542h6.682a.771.771,0,0,0,0-1.542Z" transform="translate(-164.977 -399.834)" fill="#000"></path></g></g><g id="Group_3890" data-name="Group 3890" transform="translate(7.453 14.814)"><g id="Group_3889" data-name="Group 3889" transform="translate(0 0)"><path id="Path_1485" data-name="Path 1485" d="M172.43,346.006h-6.682a.771.771,0,1,0,0,1.542h6.682a.771.771,0,0,0,0-1.542Z" transform="translate(-164.977 -346.006)" fill="#000"></path></g></g></g></g></svg>