<svg width="174" height="69" viewBox="0 0 174 69" fill="none" xmlns="http://www.w3.org/2000/svg">
<path d="M111.397 17.0011H100.976V52.0834H105.731V36.2354H110.974C111.442 39.1326 111.483 51.1455 111.483 52.0834H116.299C116.447 43.1804 116.363 26.5865 111.396 17.0011M105.664 32.1668V21.005H108.211C109.128 23.2277 109.777 25.5518 110.143 27.9281C110.547 30.2317 110.758 32.1668 110.758 32.1668H105.664Z" fill="#EDEDE3"/>
<path d="M97.2084 17.0011H91.9857V52.1043H97.2084V17.0011Z" fill="#EDEDE3"/>
<path d="M78.754 17V52.1032H83.9767V36.2135H87.7975V32.1448H83.9767V21.0478H88.8802V17H78.754Z" fill="#EDEDE3"/>
<path d="M116.327 17V21.0467H120.063L120.084 52.0813H125.232V21.0478H129V17H116.327Z" fill="#EDEDE3"/>
<path d="M34.9363 17.0011L23.5464 52.1043H28.8184L40.2084 17.0011H34.9363Z" fill="#EDEDE3"/>
<path d="M24.3899 17.001L13 52.1042H18.2721L29.662 17.001H24.3899Z" fill="#268F52"/>
<path d="M45.4804 17.0011L34.0905 52.1043H39.3626L50.7525 17.0011H45.4804Z" fill="#EDEDE3"/>
<path d="M56.0257 17.0011L44.6358 52.1043H49.9078L61.2978 17.0011H56.0257Z" fill="#FF1430"/>
</svg>
